<svg id="svg" version="1.1" xmlns="http://www.w3.org/2000/svg" xmlns:xlink="http://www.w3.org/1999/xlink" width="400" height="333.33333333333337" viewBox="0, 0, 400,333.33333333333337"><g id="svgg"><path id="path0" d="M92.667 15.167 C 92.667 15.833,92.500 16.000,91.833 16.000 C 91.056 16.000,91.000 16.111,91.000 17.667 C 91.000 19.222,90.944 19.333,90.167 19.333 C 89.352 19.333,89.333 19.389,89.333 21.833 C 89.333 24.278,89.315 24.333,88.500 24.333 C 87.685 24.333,87.667 24.389,87.667 26.833 C 87.667 29.278,87.648 29.333,86.833 29.333 C 86.019 29.333,86.000 29.389,86.000 31.833 C 86.000 34.278,85.981 34.333,85.167 34.333 C 84.352 34.333,84.333 34.389,84.333 36.833 C 84.333 39.278,84.315 39.333,83.500 39.333 C 82.685 39.333,82.667 39.389,82.667 41.833 C 82.667 44.278,82.648 44.333,81.833 44.333 C 81.056 44.333,81.000 44.444,81.000 46.000 C 81.000 47.556,80.944 47.667,80.167 47.667 C 79.352 47.667,79.333 47.722,79.333 50.167 C 79.333 52.611,79.315 52.667,78.500 52.667 C 77.685 52.667,77.667 52.722,77.667 55.167 C 77.667 57.611,77.648 57.667,76.833 57.667 C 76.019 57.667,76.000 57.722,76.000 60.167 C 76.000 62.611,75.981 62.667,75.167 62.667 C 74.352 62.667,74.333 62.722,74.333 65.167 C 74.333 67.611,74.315 67.667,73.500 67.667 C 72.685 67.667,72.667 67.722,72.667 70.167 C 72.667 72.611,72.648 72.667,71.833 72.667 C 71.056 72.667,71.000 72.778,71.000 74.333 C 71.000 75.889,70.944 76.000,70.167 76.000 C 69.352 76.000,69.333 76.056,69.333 78.500 C 69.333 80.944,69.315 81.000,68.500 81.000 C 67.685 81.000,67.667 81.056,67.667 83.500 C 67.667 85.944,67.648 86.000,66.833 86.000 C 66.019 86.000,66.000 86.056,66.000 88.500 C 66.000 90.944,65.981 91.000,65.167 91.000 C 64.352 91.000,64.333 91.056,64.333 93.500 C 64.333 95.944,64.315 96.000,63.500 96.000 C 62.722 96.000,62.667 96.111,62.667 97.667 C 62.667 99.222,62.611 99.333,61.833 99.333 C 61.019 99.333,61.000 99.389,61.000 101.833 C 61.000 104.278,60.981 104.333,60.167 104.333 C 59.352 104.333,59.333 104.389,59.333 106.833 C 59.333 109.278,59.315 109.333,58.500 109.333 C 57.685 109.333,57.667 109.389,57.667 111.833 C 57.667 114.278,57.648 114.333,56.833 114.333 C 56.019 114.333,56.000 114.389,56.000 116.833 C 56.000 119.278,55.981 119.333,55.167 119.333 C 54.352 119.333,54.333 119.389,54.333 121.833 C 54.333 124.278,54.315 124.333,53.500 124.333 C 52.722 124.333,52.667 124.444,52.667 126.000 C 52.667 127.556,52.611 127.667,51.833 127.667 C 51.019 127.667,51.000 127.722,51.000 130.167 C 51.000 132.611,50.981 132.667,50.167 132.667 C 49.352 132.667,49.333 132.722,49.333 135.167 C 49.333 137.611,49.315 137.667,48.500 137.667 C 47.685 137.667,47.667 137.722,47.667 140.167 C 47.667 142.611,47.648 142.667,46.833 142.667 C 46.019 142.667,46.000 142.722,46.000 145.167 C 46.000 147.611,45.981 147.667,45.167 147.667 C 44.389 147.667,44.333 147.778,44.333 149.333 C 44.333 150.889,44.278 151.000,43.500 151.000 C 42.685 151.000,42.667 151.056,42.667 153.500 C 42.667 155.944,42.648 156.000,41.833 156.000 C 41.019 156.000,41.000 156.056,41.000 158.500 C 41.000 160.944,40.981 161.000,40.167 161.000 C 39.352 161.000,39.333 161.056,39.333 163.500 C 39.333 165.944,39.315 166.000,38.500 166.000 C 37.685 166.000,37.667 166.056,37.667 168.500 C 37.667 170.944,37.648 171.000,36.833 171.000 C 36.019 171.000,36.000 171.056,36.000 173.500 C 36.000 175.944,35.981 176.000,35.167 176.000 C 34.389 176.000,34.333 176.111,34.333 177.667 C 34.333 179.222,34.278 179.333,33.500 179.333 C 32.685 179.333,32.667 179.389,32.667 181.833 C 32.667 184.278,32.648 184.333,31.833 184.333 C 31.019 184.333,31.000 184.389,31.000 186.833 C 31.000 189.278,30.981 189.333,30.167 189.333 C 29.352 189.333,29.333 189.389,29.333 191.833 C 29.333 194.278,29.315 194.333,28.500 194.333 C 27.685 194.333,27.667 194.389,27.667 196.833 C 27.667 199.278,27.648 199.333,26.833 199.333 C 26.019 199.333,26.000 199.389,26.000 201.833 C 26.000 204.278,25.981 204.333,25.167 204.333 C 24.389 204.333,24.333 204.444,24.333 206.000 C 24.333 207.556,24.278 207.667,23.500 207.667 C 22.685 207.667,22.667 207.722,22.667 210.167 C 22.667 212.611,22.648 212.667,21.833 212.667 C 21.019 212.667,21.000 212.722,21.000 215.167 C 21.000 217.611,20.981 217.667,20.167 217.667 C 19.352 217.667,19.333 217.722,19.333 220.167 C 19.333 222.611,19.315 222.667,18.500 222.667 C 17.670 222.667,17.667 222.678,17.667 225.833 L 17.667 229.000 45.833 229.000 L 74.000 229.000 74.000 226.500 C 74.000 224.056,74.019 224.000,74.833 224.000 C 75.648 224.000,75.667 223.944,75.667 221.500 C 75.667 219.056,75.685 219.000,76.500 219.000 C 77.315 219.000,77.333 218.944,77.333 216.500 C 77.333 214.056,77.352 214.000,78.167 214.000 C 78.944 214.000,79.000 213.889,79.000 212.333 C 79.000 210.778,79.056 210.667,79.833 210.667 C 80.648 210.667,80.667 210.611,80.667 208.167 C 80.667 205.722,80.685 205.667,81.500 205.667 C 82.315 205.667,82.333 205.611,82.333 203.167 C 82.333 200.722,82.352 200.667,83.167 200.667 C 83.981 200.667,84.000 200.611,84.000 198.167 C 84.000 195.722,84.019 195.667,84.833 195.667 C 85.611 195.667,85.667 195.556,85.667 194.000 L 85.667 192.333 125.000 192.333 L 164.333 192.333 164.333 193.167 C 164.333 193.833,164.500 194.000,165.167 194.000 C 165.981 194.000,166.000 194.056,166.000 196.500 C 166.000 198.944,166.019 199.000,166.833 199.000 C 167.648 199.000,167.667 199.056,167.667 201.500 C 167.667 203.944,167.685 204.000,168.500 204.000 C 169.315 204.000,169.333 204.056,169.333 206.500 C 169.333 208.944,169.352 209.000,170.167 209.000 C 170.944 209.000,171.000 209.111,171.000 210.667 C 171.000 212.222,171.056 212.333,171.833 212.333 C 172.648 212.333,172.667 212.389,172.667 214.833 C 172.667 217.278,172.685 217.333,173.500 217.333 C 174.315 217.333,174.333 217.389,174.333 219.833 C 174.333 222.278,174.352 222.333,175.167 222.333 C 175.981 222.333,176.000 222.389,176.000 224.833 C 176.000 227.278,176.019 227.333,176.833 227.333 C 177.500 227.333,177.667 227.500,177.667 228.167 L 177.667 229.000 206.000 229.000 L 234.333 229.000 234.333 227.500 C 234.333 226.122,234.265 226.000,233.500 226.000 C 232.685 226.000,232.667 225.944,232.667 223.500 C 232.667 221.056,232.648 221.000,231.833 221.000 C 231.019 221.000,231.000 220.944,231.000 218.500 C 231.000 216.056,230.981 216.000,230.167 216.000 C 229.352 216.000,229.333 215.944,229.333 213.500 C 229.333 211.056,229.315 211.000,228.500 211.000 C 227.685 211.000,227.667 210.944,227.667 208.500 C 227.667 206.056,227.648 206.000,226.833 206.000 C 226.056 206.000,226.000 205.889,226.000 204.333 C 226.000 202.778,225.944 202.667,225.167 202.667 C 224.352 202.667,224.333 202.611,224.333 200.167 C 224.333 197.722,224.315 197.667,223.500 197.667 C 222.685 197.667,222.667 197.611,222.667 195.167 C 222.667 192.722,222.648 192.667,221.833 192.667 C 221.019 192.667,221.000 192.611,221.000 190.167 C 221.000 187.722,220.981 187.667,220.167 187.667 C 219.352 187.667,219.333 187.611,219.333 185.167 C 219.333 182.722,219.315 182.667,218.500 182.667 C 217.685 182.667,217.667 182.611,217.667 180.167 C 217.667 177.722,217.648 177.667,216.833 177.667 C 216.056 177.667,216.000 177.556,216.000 176.000 C 216.000 174.444,215.944 174.333,215.167 174.333 C 214.352 174.333,214.333 174.278,214.333 171.833 C 214.333 169.389,214.315 169.333,213.500 169.333 C 212.685 169.333,212.667 169.278,212.667 166.833 L 212.667 164.333 211.667 164.333 L 210.667 164.333 210.667 161.833 C 210.667 159.389,210.648 159.333,209.833 159.333 C 209.019 159.333,209.000 159.278,209.000 156.833 C 209.000 154.389,208.981 154.333,208.167 154.333 C 207.389 154.333,207.333 154.222,207.333 152.667 C 207.333 151.111,207.278 151.000,206.500 151.000 C 205.685 151.000,205.667 150.944,205.667 148.500 C 205.667 146.056,205.648 146.000,204.833 146.000 C 204.019 146.000,204.000 145.944,204.000 143.500 C 204.000 141.056,203.981 141.000,203.167 141.000 C 202.352 141.000,202.333 140.944,202.333 138.500 C 202.333 136.056,202.315 136.000,201.500 136.000 C 200.685 136.000,200.667 135.944,200.667 133.500 C 200.667 131.056,200.648 131.000,199.833 131.000 C 199.019 131.000,199.000 130.944,199.000 128.500 C 199.000 126.056,198.981 126.000,198.167 126.000 C 197.389 126.000,197.333 125.889,197.333 124.333 C 197.333 122.778,197.278 122.667,196.500 122.667 C 195.685 122.667,195.667 122.611,195.667 120.167 C 195.667 117.722,195.648 117.667,194.833 117.667 C 194.019 117.667,194.000 117.611,194.000 115.167 C 194.000 112.722,193.981 112.667,193.167 112.667 C 192.352 112.667,192.333 112.611,192.333 110.167 C 192.333 107.722,192.315 107.667,191.500 107.667 C 190.685 107.667,190.667 107.611,190.667 105.167 C 190.667 102.722,190.648 102.667,189.833 102.667 C 189.019 102.667,189.000 102.611,189.000 100.167 C 189.000 97.722,188.981 97.667,188.167 97.667 C 187.389 97.667,187.333 97.556,187.333 96.000 C 187.333 94.444,187.278 94.333,186.500 94.333 C 185.685 94.333,185.667 94.278,185.667 91.833 C 185.667 89.389,185.648 89.333,184.833 89.333 C 184.019 89.333,184.000 89.278,184.000 86.833 C 184.000 84.389,183.981 84.333,183.167 84.333 C 182.352 84.333,182.333 84.278,182.333 81.833 C 182.333 79.389,182.315 79.333,181.500 79.333 C 180.685 79.333,180.667 79.278,180.667 76.833 C 180.667 74.389,180.648 74.333,179.833 74.333 C 179.056 74.333,179.000 74.222,179.000 72.667 C 179.000 71.111,178.944 71.000,178.167 71.000 C 177.352 71.000,177.333 70.944,177.333 68.500 C 177.333 66.056,177.315 66.000,176.500 66.000 C 175.685 66.000,175.667 65.944,175.667 63.500 C 175.667 61.056,175.648 61.000,174.833 61.000 C 174.019 61.000,174.000 60.944,174.000 58.500 C 174.000 56.056,173.981 56.000,173.167 56.000 C 172.352 56.000,172.333 55.944,172.333 53.500 C 172.333 51.056,172.315 51.000,171.500 51.000 C 170.685 51.000,170.667 50.944,170.667 48.500 C 170.667 46.056,170.648 46.000,169.833 46.000 C 169.056 46.000,169.000 45.889,169.000 44.333 C 169.000 42.778,168.944 42.667,168.167 42.667 C 167.352 42.667,167.333 42.611,167.333 40.167 C 167.333 37.722,167.315 37.667,166.500 37.667 C 165.685 37.667,165.667 37.611,165.667 35.167 C 165.667 32.722,165.648 32.667,164.833 32.667 C 164.019 32.667,164.000 32.611,164.000 30.167 C 164.000 27.722,163.981 27.667,163.167 27.667 C 162.352 27.667,162.333 27.611,162.333 25.167 C 162.333 22.722,162.315 22.667,161.500 22.667 C 160.722 22.667,160.667 22.556,160.667 21.000 C 160.667 19.444,160.611 19.333,159.833 19.333 C 159.019 19.333,159.000 19.278,159.000 16.833 L 159.000 14.333 125.833 14.333 L 92.667 14.333 92.667 15.167 M249.733 14.733 C 249.513 14.953,249.333 15.328,249.333 15.567 C 249.333 16.103,250.208 16.139,250.532 15.615 C 250.691 15.357,250.615 15.318,250.302 15.497 C 249.923 15.713,249.913 15.679,250.250 15.316 C 251.037 14.467,250.549 13.917,249.733 14.733 M251.000 14.647 C 251.000 14.820,251.173 15.068,251.385 15.198 C 251.641 15.357,251.678 15.289,251.497 14.995 C 251.299 14.674,251.376 14.612,251.779 14.766 C 252.084 14.883,252.333 14.834,252.333 14.656 C 252.333 14.479,252.033 14.333,251.667 14.333 C 251.300 14.333,251.000 14.474,251.000 14.647 M126.851 82.333 C 127.644 82.333,127.667 82.403,127.667 84.833 C 127.667 87.278,127.685 87.333,128.500 87.333 C 129.315 87.333,129.333 87.389,129.333 89.833 C 129.333 92.278,129.352 92.333,130.167 92.333 C 130.981 92.333,131.000 92.389,131.000 94.833 C 131.000 97.278,131.019 97.333,131.833 97.333 C 132.648 97.333,132.667 97.389,132.667 99.833 C 132.667 102.278,132.685 102.333,133.500 102.333 C 134.315 102.333,134.333 102.389,134.333 104.833 C 134.333 107.278,134.352 107.333,135.167 107.333 C 135.981 107.333,136.000 107.389,136.000 109.833 C 136.000 112.278,136.019 112.333,136.833 112.333 C 137.648 112.333,137.667 112.389,137.667 114.833 C 137.667 117.278,137.685 117.333,138.500 117.333 C 139.315 117.333,139.333 117.389,139.333 119.833 C 139.333 122.278,139.352 122.333,140.167 122.333 C 140.944 122.333,141.000 122.444,141.000 124.000 C 141.000 125.556,141.056 125.667,141.833 125.667 C 142.648 125.667,142.667 125.722,142.667 128.167 C 142.667 130.611,142.685 130.667,143.500 130.667 C 144.315 130.667,144.333 130.722,144.333 133.167 C 144.333 135.611,144.352 135.667,145.167 135.667 C 145.981 135.667,146.000 135.722,146.000 138.167 C 146.000 140.611,146.019 140.667,146.833 140.667 C 147.648 140.667,147.667 140.722,147.667 143.167 C 147.667 145.611,147.685 145.667,148.500 145.667 C 149.204 145.667,149.333 145.822,149.333 146.667 L 149.333 147.667 124.917 147.617 C 111.487 147.589,100.912 147.504,101.417 147.428 C 102.322 147.291,102.333 147.258,102.333 144.811 C 102.333 142.390,102.353 142.333,103.167 142.333 C 103.981 142.333,104.000 142.278,104.000 139.833 C 104.000 137.389,104.019 137.333,104.833 137.333 C 105.648 137.333,105.667 137.278,105.667 134.833 C 105.667 132.389,105.685 132.333,106.500 132.333 C 107.315 132.333,107.333 132.278,107.333 129.833 C 107.333 127.389,107.352 127.333,108.167 127.333 C 108.944 127.333,109.000 127.222,109.000 125.667 C 109.000 124.111,109.056 124.000,109.833 124.000 C 110.648 124.000,110.667 123.944,110.667 121.500 C 110.667 119.056,110.685 119.000,111.500 119.000 C 112.315 119.000,112.333 118.944,112.333 116.500 C 112.333 114.056,112.352 114.000,113.167 114.000 C 113.981 114.000,114.000 113.944,114.000 111.500 C 114.000 109.056,114.019 109.000,114.833 109.000 C 115.648 109.000,115.667 108.944,115.667 106.500 C 115.667 104.056,115.685 104.000,116.500 104.000 C 117.315 104.000,117.333 103.944,117.333 101.500 C 117.333 99.056,117.352 99.000,118.167 99.000 C 118.981 99.000,119.000 98.944,119.000 96.500 C 119.000 94.056,119.019 94.000,119.833 94.000 C 120.648 94.000,120.667 93.944,120.667 91.500 C 120.667 89.056,120.685 89.000,121.500 89.000 C 122.315 89.000,122.333 88.944,122.333 86.500 C 122.333 84.056,122.352 84.000,123.167 84.000 C 123.944 84.000,124.000 83.889,124.000 82.333 C 124.000 80.778,124.056 80.667,124.833 80.667 C 125.505 80.667,125.679 80.489,125.728 79.750 C 125.762 79.246,125.845 79.621,125.912 80.583 C 126.024 82.184,126.104 82.333,126.851 82.333 M301.722 97.833 C 301.807 98.341,301.675 98.474,301.167 98.389 C 300.627 98.299,300.580 98.360,300.919 98.708 C 301.261 99.059,301.443 99.033,301.905 98.571 C 302.367 98.109,302.392 97.927,302.041 97.586 C 301.693 97.247,301.632 97.294,301.722 97.833 M249.333 98.158 C 249.333 98.794,249.902 99.106,250.113 98.585 C 250.242 98.268,250.375 98.287,250.667 98.667 C 250.967 99.058,251.023 99.065,250.925 98.699 C 250.744 98.025,249.333 97.546,249.333 98.158 M299.000 108.167 C 299.000 109.123,299.390 109.229,300.143 108.476 C 300.895 107.724,300.790 107.333,299.833 107.333 C 299.167 107.333,299.000 107.500,299.000 108.167 M297.333 118.178 C 297.333 118.903,297.423 118.975,297.961 118.688 C 298.996 118.133,299.112 117.333,298.156 117.333 C 297.498 117.333,297.333 117.502,297.333 118.178 M295.667 128.000 C 295.667 128.756,296.012 128.854,296.600 128.267 C 297.188 127.679,297.089 127.333,296.333 127.333 C 295.889 127.333,295.667 127.556,295.667 128.000 M294.000 137.861 C 294.000 138.450,294.718 138.347,294.924 137.729 C 294.996 137.511,294.818 137.333,294.528 137.333 C 294.237 137.333,294.000 137.571,294.000 137.861 M26.000 276.000 C 26.000 277.556,25.944 277.667,25.167 277.667 C 24.352 277.667,24.333 277.722,24.333 280.167 C 24.333 282.611,24.315 282.667,23.500 282.667 C 22.685 282.667,22.667 282.722,22.667 285.167 C 22.667 287.611,22.648 287.667,21.833 287.667 C 21.019 287.667,21.000 287.722,21.000 290.167 C 21.000 292.611,20.981 292.667,20.167 292.667 C 19.372 292.667,19.333 292.757,19.333 294.642 C 19.333 296.353,19.221 296.706,18.500 297.274 C 17.845 297.789,17.667 298.232,17.667 299.343 C 17.667 300.423,17.470 300.939,16.833 301.529 C 16.077 302.230,16.000 302.551,16.000 304.984 C 16.000 307.623,15.987 307.667,15.167 307.667 C 14.401 307.667,14.333 307.789,14.333 309.167 L 14.333 310.667 20.000 310.667 L 25.667 310.667 25.667 309.651 C 25.667 308.995,25.962 308.361,26.500 307.863 C 27.158 307.253,27.333 306.765,27.333 305.545 L 27.333 304.000 31.667 304.000 L 36.000 304.000 36.000 304.833 C 36.000 305.500,36.167 305.667,36.833 305.667 C 37.648 305.667,37.667 305.722,37.667 308.167 L 37.667 310.667 43.333 310.667 L 49.000 310.667 49.000 307.631 C 49.000 304.791,48.947 304.554,48.167 303.940 C 47.422 303.354,47.333 303.041,47.333 300.983 C 47.333 298.896,47.256 298.631,46.500 298.136 C 45.799 297.677,45.667 297.331,45.667 295.962 C 45.667 294.447,45.608 294.333,44.833 294.333 C 43.908 294.333,43.714 293.848,44.517 293.539 C 44.814 293.426,44.948 293.482,44.831 293.670 C 44.719 293.852,44.861 294.000,45.147 294.000 C 45.993 294.000,45.739 293.031,44.833 292.804 C 44.087 292.616,44.000 292.425,44.000 290.968 C 44.000 289.480,43.936 289.348,43.250 289.421 C 42.521 289.498,42.497 289.403,42.405 286.083 C 42.311 282.700,42.302 282.667,41.488 282.667 C 40.688 282.667,40.667 282.602,40.667 280.167 C 40.667 277.722,40.648 277.667,39.833 277.667 C 39.056 277.667,39.000 277.556,39.000 276.000 L 39.000 274.333 32.500 274.333 L 26.000 274.333 26.000 276.000 M77.667 292.500 L 77.667 310.667 82.500 310.667 L 87.333 310.667 87.333 292.500 L 87.333 274.333 82.500 274.333 L 77.667 274.333 77.667 292.500 M151.000 289.369 L 151.000 304.406 151.833 304.196 C 152.516 304.025,152.667 304.109,152.667 304.660 C 152.667 305.030,152.517 305.333,152.333 305.333 C 152.150 305.333,152.000 305.183,152.000 305.000 C 152.000 304.817,151.813 304.672,151.583 304.678 C 151.354 304.684,151.504 304.970,151.917 305.315 C 152.329 305.659,152.667 306.254,152.667 306.637 C 152.667 307.158,152.877 307.333,153.500 307.333 C 154.167 307.333,154.333 307.500,154.333 308.167 C 154.333 308.944,154.444 309.000,156.000 309.000 C 157.556 309.000,157.667 309.056,157.667 309.833 L 157.667 310.667 165.833 310.667 L 174.000 310.667 174.000 309.833 C 174.000 309.056,174.111 309.000,175.667 309.000 C 177.222 309.000,177.333 308.944,177.333 308.167 C 177.333 307.500,177.500 307.333,178.167 307.333 C 178.944 307.333,179.000 307.222,179.000 305.667 C 179.000 304.111,179.056 304.000,179.833 304.000 L 180.667 304.000 180.667 289.167 L 180.667 274.333 175.875 274.333 L 171.083 274.333 170.875 275.375 C 170.760 275.948,170.667 280.774,170.667 286.099 C 170.667 294.719,170.605 295.849,170.104 296.403 C 169.757 296.786,169.486 297.783,169.398 298.996 L 169.256 300.968 167.544 301.067 C 163.846 301.282,162.333 301.018,162.333 300.159 C 162.333 299.605,162.117 299.349,161.583 299.273 L 160.833 299.167 160.746 286.750 L 160.659 274.333 155.829 274.333 L 151.000 274.333 151.000 289.369 M214.333 278.333 L 214.333 282.333 219.333 282.333 L 224.333 282.333 224.333 278.333 L 224.333 274.333 219.333 274.333 L 214.333 274.333 214.333 278.333 M327.667 278.333 L 327.667 282.333 332.500 282.333 L 337.333 282.333 337.333 278.333 L 337.333 274.333 332.500 274.333 L 327.667 274.333 327.667 278.333 M92.667 280.199 L 92.667 284.398 91.000 284.282 L 89.333 284.167 89.333 287.417 L 89.333 290.667 91.000 290.667 L 92.667 290.667 92.667 299.000 L 92.667 307.333 93.500 307.333 C 94.167 307.333,94.333 307.500,94.333 308.167 C 94.333 308.833,94.500 309.000,95.167 309.000 C 95.833 309.000,96.000 309.167,96.000 309.833 L 96.000 310.667 101.667 310.667 L 107.333 310.667 107.333 306.667 L 107.333 302.667 104.833 302.667 L 102.333 302.667 102.333 296.667 L 102.333 290.667 104.833 290.667 L 107.333 290.667 107.333 287.020 C 107.333 284.452,107.210 283.302,106.917 283.133 C 106.688 283.001,106.611 283.016,106.747 283.166 C 107.319 283.797,106.191 284.333,104.293 284.333 L 102.333 284.333 102.333 280.167 L 102.333 276.000 97.500 276.000 L 92.667 276.000 92.667 280.199 M342.667 280.180 L 342.667 284.360 341.333 284.282 C 339.795 284.191,339.829 284.220,340.564 283.624 C 341.044 283.235,341.086 283.236,340.846 283.635 C 340.654 283.953,340.687 284.027,340.948 283.865 C 341.493 283.529,341.427 282.667,340.857 282.667 C 339.654 282.667,339.333 283.619,339.333 287.190 L 339.333 290.667 341.000 290.667 L 342.667 290.667 342.667 299.000 L 342.667 307.333 343.500 307.333 C 344.167 307.333,344.333 307.500,344.333 308.167 C 344.333 308.833,344.500 309.000,345.167 309.000 C 345.833 309.000,346.000 309.167,346.000 309.833 L 346.000 310.667 351.667 310.667 L 357.333 310.667 357.333 306.667 L 357.333 302.667 355.869 302.667 C 354.712 302.667,354.186 302.463,353.369 301.700 L 352.333 300.733 352.333 295.700 L 352.333 290.667 354.849 290.667 L 357.365 290.667 357.309 287.150 C 357.268 284.582,357.123 283.504,356.769 283.150 C 356.206 282.587,355.333 282.508,355.333 283.020 C 355.333 283.214,355.483 283.280,355.667 283.167 C 355.850 283.053,356.000 283.182,356.000 283.453 C 356.000 283.723,356.188 284.020,356.417 284.113 C 356.646 284.205,355.821 284.293,354.583 284.307 L 352.333 284.333 352.333 280.167 L 352.333 276.000 347.500 276.000 L 342.667 276.000 342.667 280.180 M55.417 283.010 C 55.004 283.176,54.667 283.542,54.667 283.823 C 54.667 284.168,54.343 284.333,53.667 284.333 C 52.822 284.333,52.667 284.463,52.667 285.167 C 52.667 285.833,52.500 286.000,51.833 286.000 C 51.048 286.000,51.000 286.103,51.000 287.782 C 51.000 289.140,50.842 289.707,50.333 290.167 C 49.557 290.869,49.456 291.667,50.144 291.667 C 50.643 291.667,51.206 292.905,50.864 293.247 C 50.755 293.356,50.667 293.269,50.667 293.056 C 50.667 292.842,50.404 292.664,50.083 292.662 C 49.585 292.657,49.573 292.609,50.000 292.333 C 50.427 292.057,50.415 292.009,49.917 292.005 C 48.845 291.996,49.393 293.616,50.533 293.830 C 50.882 293.895,51.917 293.983,52.833 294.024 C 53.867 294.071,54.152 294.153,53.583 294.239 C 52.872 294.346,52.667 294.560,52.667 295.189 C 52.667 295.940,52.543 296.000,51.000 296.000 L 49.333 296.000 49.333 301.667 L 49.333 307.333 50.167 307.333 C 50.833 307.333,51.000 307.500,51.000 308.167 C 51.000 308.833,51.167 309.000,51.833 309.000 C 52.499 309.000,52.667 309.167,52.667 309.831 L 52.667 310.661 64.167 310.657 L 75.667 310.654 75.621 308.410 C 75.596 307.176,75.511 306.504,75.431 306.917 C 75.339 307.397,75.047 307.667,74.620 307.667 C 74.132 307.667,73.969 307.465,74.013 306.917 C 74.046 306.504,74.057 302.079,74.037 297.083 L 74.000 288.000 73.167 288.000 C 72.379 288.000,72.333 287.900,72.333 286.167 L 72.333 284.333 70.667 284.333 C 69.111 284.333,69.000 284.278,69.000 283.500 L 69.000 282.667 62.583 282.688 C 59.054 282.699,55.829 282.845,55.417 283.010 M116.000 283.493 C 116.000 284.279,115.893 284.333,114.333 284.333 C 112.778 284.333,112.667 284.389,112.667 285.167 C 112.667 285.833,112.500 286.000,111.833 286.000 C 111.167 286.000,111.000 286.167,111.000 286.833 C 111.000 287.500,110.833 287.667,110.167 287.667 C 109.389 287.667,109.333 287.778,109.333 289.333 C 109.333 290.889,109.278 291.000,108.500 291.000 L 107.667 291.000 107.667 296.667 L 107.667 302.333 108.500 302.333 C 109.278 302.333,109.333 302.444,109.333 304.000 C 109.333 305.556,109.389 305.667,110.167 305.667 C 110.833 305.667,111.000 305.833,111.000 306.500 C 111.000 307.167,111.167 307.333,111.833 307.333 C 112.500 307.333,112.667 307.500,112.667 308.167 C 112.667 308.826,112.835 309.000,113.472 309.000 C 113.915 309.000,114.354 309.188,114.447 309.417 C 114.556 309.687,114.713 309.716,114.891 309.500 C 115.254 309.061,116.000 308.921,116.000 309.293 C 116.000 309.763,115.130 310.350,114.833 310.080 C 114.683 309.945,114.668 310.021,114.800 310.250 C 114.979 310.562,116.786 310.667,122.020 310.667 L 129.000 310.667 129.000 309.833 C 129.000 309.139,129.159 309.000,129.954 309.000 C 130.805 309.000,130.889 308.905,130.739 308.119 C 130.586 307.315,130.649 307.252,131.457 307.407 C 132.250 307.558,132.335 307.484,132.256 306.705 C 132.181 305.975,132.316 305.816,133.083 305.728 C 133.803 305.645,134.000 305.448,134.000 304.811 C 134.000 304.168,134.173 304.000,134.833 304.000 C 135.651 304.000,135.667 303.950,135.667 301.414 C 135.667 299.188,135.760 298.769,136.333 298.411 C 136.700 298.182,137.000 297.844,137.000 297.661 C 137.000 297.477,136.700 297.070,136.333 296.756 C 135.747 296.254,135.667 295.773,135.667 292.759 L 135.667 289.333 134.833 289.333 C 134.178 289.333,133.991 289.156,133.958 288.500 C 133.935 288.042,133.879 287.517,133.833 287.333 C 133.787 287.150,133.731 286.860,133.708 286.689 C 133.685 286.518,133.329 286.273,132.917 286.144 C 132.504 286.015,131.809 285.555,131.371 285.122 C 130.934 284.688,130.257 284.333,129.867 284.333 C 129.452 284.333,129.022 284.023,128.829 283.583 C 128.507 282.849,128.371 282.831,122.250 282.743 L 116.000 282.652 116.000 283.493 M186.667 283.433 C 186.667 283.855,186.487 284.380,186.267 284.600 C 186.047 284.820,185.522 285.000,185.100 285.000 L 184.333 285.000 184.333 297.833 L 184.333 310.667 189.167 310.667 L 194.000 310.667 194.037 303.083 C 194.057 298.912,194.046 295.162,194.013 294.750 C 193.967 294.179,194.129 294.000,194.694 294.000 C 195.403 294.000,195.410 294.029,194.863 294.634 C 194.518 295.015,194.422 295.349,194.622 295.472 C 195.180 295.817,195.555 295.018,195.625 293.333 C 195.666 292.348,195.694 292.333,197.500 292.333 L 199.333 292.333 199.333 301.500 L 199.333 310.667 204.167 310.667 L 209.000 310.667 209.000 298.333 L 209.000 286.000 208.167 286.000 C 207.489 286.000,207.333 285.836,207.333 285.123 C 207.333 284.233,206.668 284.142,204.352 284.714 C 204.039 284.792,203.804 284.483,203.682 283.833 L 203.494 282.833 198.937 282.741 L 194.379 282.648 194.240 283.574 L 194.100 284.500 194.050 283.583 L 194.000 282.667 190.333 282.667 C 186.729 282.667,186.667 282.680,186.667 283.433 M214.333 296.667 L 214.333 310.667 219.333 310.667 L 224.333 310.667 224.333 296.667 L 224.333 282.667 219.333 282.667 L 214.333 282.667 214.333 296.667 M226.000 285.702 C 226.000 288.543,226.053 288.779,226.833 289.393 C 227.555 289.960,227.667 290.314,227.667 292.024 C 227.667 293.909,227.705 294.000,228.500 294.000 C 229.315 294.000,229.333 294.056,229.333 296.500 C 229.333 298.930,229.356 299.000,230.148 299.000 C 230.884 299.000,230.973 299.154,231.065 300.583 C 231.153 301.948,231.273 302.182,231.937 302.276 C 232.495 302.355,232.692 302.585,232.650 303.109 C 232.391 306.379,232.653 307.742,233.500 307.530 C 234.351 307.316,234.729 308.049,234.000 308.500 C 233.817 308.613,233.667 308.547,233.667 308.353 C 233.667 308.159,233.479 308.005,233.250 308.011 C 233.021 308.017,233.171 308.304,233.583 308.648 C 233.996 308.992,234.333 309.587,234.333 309.970 C 234.333 310.646,234.484 310.667,239.333 310.667 L 244.333 310.667 244.333 309.000 C 244.333 307.444,244.389 307.333,245.167 307.333 C 245.981 307.333,246.000 307.278,246.000 304.833 C 246.000 302.389,246.019 302.333,246.833 302.333 C 247.648 302.333,247.667 302.278,247.667 299.833 C 247.667 297.389,247.685 297.333,248.500 297.333 C 249.315 297.333,249.333 297.278,249.333 294.833 C 249.333 292.389,249.352 292.333,250.167 292.333 C 250.981 292.333,251.000 292.278,251.000 289.833 C 251.000 287.389,251.019 287.333,251.833 287.333 C 252.643 287.333,252.667 287.267,252.667 285.000 L 252.667 282.667 247.233 282.667 C 240.734 282.667,241.000 282.507,241.000 286.400 C 241.000 289.307,240.992 289.333,240.167 289.333 C 239.388 289.333,239.331 289.448,239.300 291.083 C 239.276 292.369,239.204 292.612,239.031 292.000 C 238.796 291.169,238.795 291.169,238.596 291.917 C 238.486 292.329,238.223 292.667,238.012 292.667 C 237.788 292.667,237.736 292.493,237.888 292.250 C 238.274 291.631,238.316 291.000,237.971 291.000 C 237.803 291.000,237.667 289.875,237.667 288.500 C 237.667 286.056,237.648 286.000,236.833 286.000 C 236.056 286.000,236.000 285.889,236.000 284.333 L 236.000 282.667 231.000 282.667 L 226.000 282.667 226.000 285.702 M259.733 283.067 C 259.513 283.287,259.333 283.642,259.333 283.857 C 259.333 284.072,258.718 284.346,257.966 284.467 C 256.996 284.622,256.550 284.876,256.427 285.343 C 256.333 285.704,256.048 286.000,255.794 286.000 C 255.229 286.000,255.200 286.400,255.728 286.928 C 255.945 287.145,256.017 287.427,255.889 287.556 C 255.761 287.684,255.478 287.611,255.261 287.394 C 254.596 286.729,254.333 286.948,254.333 288.167 C 254.333 289.189,254.230 289.333,253.500 289.333 L 252.667 289.333 252.667 296.667 L 252.667 304.000 253.500 304.000 C 254.278 304.000,254.333 304.111,254.333 305.667 C 254.333 307.222,254.389 307.333,255.167 307.333 C 255.833 307.333,256.000 307.500,256.000 308.167 C 256.000 308.944,256.111 309.000,257.667 309.000 C 259.222 309.000,259.333 309.056,259.333 309.833 L 259.333 310.667 266.143 310.667 C 273.053 310.667,274.000 310.503,274.000 309.310 C 274.000 309.139,274.375 309.000,274.833 309.000 C 275.500 309.000,275.667 308.833,275.667 308.167 C 275.667 307.500,275.833 307.333,276.500 307.333 C 277.278 307.333,277.333 307.222,277.333 305.667 C 277.333 304.111,277.389 304.000,278.167 304.000 C 278.932 304.000,279.000 303.878,279.000 302.500 L 279.000 301.000 273.333 301.000 L 267.667 301.000 267.667 301.833 C 267.667 302.621,267.567 302.667,265.833 302.667 C 264.113 302.667,264.000 302.617,264.000 301.855 C 264.000 301.226,263.794 301.013,263.083 300.905 C 262.579 300.829,265.960 300.744,270.597 300.717 L 279.027 300.667 278.983 295.493 C 278.939 290.345,278.719 289.333,277.643 289.333 C 277.473 289.333,277.333 289.045,277.333 288.692 C 277.333 288.340,276.921 287.611,276.417 287.072 C 275.912 286.534,275.132 285.682,274.682 285.179 C 273.874 284.276,273.160 284.185,271.019 284.714 C 270.706 284.792,270.471 284.483,270.349 283.833 L 270.160 282.833 265.663 282.833 C 261.254 282.833,261.165 282.848,261.060 283.583 C 260.985 284.110,260.737 284.325,260.227 284.307 C 259.827 284.293,259.689 284.204,259.920 284.111 C 260.585 283.844,261.121 282.667,260.578 282.667 C 260.334 282.667,259.953 282.847,259.733 283.067 M281.666 283.334 C 281.064 283.936,281.029 284.637,281.008 296.485 L 280.986 309.000 281.909 309.026 C 282.418 309.041,282.645 309.129,282.415 309.221 C 282.184 309.314,282.101 309.565,282.229 309.778 C 282.357 309.992,282.204 309.958,281.889 309.702 C 281.209 309.150,280.744 309.456,281.281 310.103 C 281.557 310.436,282.849 310.576,286.161 310.633 L 290.667 310.710 290.667 309.855 C 290.667 309.165,290.828 309.000,291.500 309.000 L 292.333 309.000 292.333 301.500 L 292.333 294.000 293.167 294.000 C 293.833 294.000,294.000 293.833,294.000 293.167 C 294.000 292.344,294.037 292.333,296.782 292.333 C 300.631 292.333,300.736 292.197,300.632 287.332 C 300.554 283.718,300.259 282.667,299.320 282.667 C 298.941 282.667,299.318 283.687,299.923 284.298 C 300.302 284.682,300.305 284.812,299.941 285.043 C 299.699 285.197,299.650 285.325,299.833 285.328 C 300.432 285.337,300.153 289.817,299.546 289.939 C 299.101 290.029,299.009 289.507,298.928 286.439 L 298.833 282.833 290.567 282.766 C 282.832 282.703,282.260 282.740,281.666 283.334 M306.000 283.477 C 306.000 284.063,305.793 284.316,305.250 284.393 C 304.768 284.462,304.462 284.768,304.393 285.250 C 304.325 285.732,304.057 286.000,303.643 286.000 C 303.034 286.000,303.038 285.962,303.729 285.271 C 304.215 284.785,304.323 284.496,304.051 284.406 C 303.491 284.219,302.667 284.960,302.667 285.649 C 302.667 285.962,302.292 286.569,301.833 287.000 C 301.036 287.749,301.000 287.951,301.000 291.725 L 301.000 295.667 301.917 295.693 C 302.421 295.707,302.645 295.795,302.415 295.888 C 302.184 295.981,302.101 296.232,302.229 296.445 C 302.357 296.659,302.204 296.624,301.889 296.369 C 301.575 296.114,301.224 295.998,301.111 296.111 C 300.829 296.393,301.674 297.368,302.017 297.156 C 302.169 297.062,302.449 297.252,302.640 297.576 C 302.855 297.941,303.086 298.039,303.244 297.833 C 303.580 297.396,304.333 297.252,304.333 297.626 C 304.333 298.033,303.487 298.696,303.217 298.500 C 303.094 298.411,303.108 298.479,303.247 298.651 C 303.386 298.823,304.400 299.018,305.500 299.085 C 306.939 299.173,306.584 299.225,304.237 299.270 L 300.975 299.333 301.071 302.417 C 301.161 305.327,301.209 305.506,301.917 305.607 C 302.577 305.700,302.667 305.907,302.667 307.338 L 302.667 308.963 304.250 309.065 C 305.601 309.152,305.849 309.277,305.940 309.917 L 306.046 310.667 313.357 310.667 L 320.667 310.667 320.667 309.833 C 320.667 309.173,320.835 309.000,321.477 309.000 C 322.063 309.000,322.316 308.793,322.393 308.250 C 322.462 307.768,322.768 307.462,323.250 307.393 C 323.912 307.299,324.000 307.094,324.000 305.643 C 324.000 304.113,324.057 304.000,324.833 304.000 C 326.077 304.000,326.158 297.783,324.917 297.607 C 324.278 297.516,324.152 297.267,324.066 295.933 L 323.965 294.367 322.232 294.245 L 320.500 294.123 322.211 294.062 C 324.280 293.987,324.365 293.762,324.086 289.089 C 323.909 286.120,323.872 286.000,323.118 286.000 C 322.503 286.000,322.333 285.819,322.333 285.167 C 322.333 284.389,322.222 284.333,320.667 284.333 C 319.111 284.333,319.000 284.278,319.000 283.500 L 319.000 282.667 312.500 282.667 L 306.000 282.667 306.000 283.477 M327.667 296.667 L 327.667 310.667 332.500 310.667 L 337.333 310.667 337.333 296.667 L 337.333 282.667 332.500 282.667 L 327.667 282.667 327.667 296.667 M357.667 285.000 C 357.667 287.267,357.690 287.333,358.500 287.333 C 359.262 287.333,359.333 287.458,359.333 288.792 C 359.333 290.120,359.416 290.267,360.261 290.436 C 361.186 290.621,361.188 290.626,361.060 292.985 C 360.939 295.208,360.983 295.390,361.799 296.032 C 362.559 296.631,362.667 296.959,362.667 298.691 C 362.667 300.550,362.714 300.667,363.460 300.667 C 364.194 300.667,364.264 300.821,364.402 302.726 C 364.521 304.372,364.697 304.883,365.276 305.267 C 365.870 305.662,366.000 306.070,366.000 307.541 L 366.000 309.333 363.500 309.333 L 361.000 309.333 361.000 313.333 L 361.000 317.333 367.500 317.333 L 374.000 317.333 374.000 316.579 C 374.000 316.117,374.290 315.697,374.750 315.496 C 375.388 315.216,375.525 314.843,375.667 313.000 C 375.815 311.067,375.914 310.822,376.583 310.727 C 377.236 310.634,377.333 310.423,377.333 309.098 C 377.333 307.903,377.512 307.411,378.167 306.804 C 378.863 306.159,379.000 305.727,379.000 304.183 C 379.000 303.165,379.139 302.333,379.310 302.333 C 380.157 302.333,380.667 301.207,380.667 299.333 C 380.667 297.572,380.739 297.369,381.403 297.273 C 382.323 297.140,382.590 296.231,382.633 293.083 C 382.666 290.700,382.679 290.667,383.549 290.667 L 384.432 290.667 384.218 287.917 C 384.100 286.404,384.003 284.604,384.002 283.917 L 384.000 282.667 379.567 282.667 C 374.334 282.667,374.333 282.667,374.333 285.675 C 374.333 287.612,374.229 287.982,373.482 288.683 C 372.672 289.444,372.634 289.640,372.692 292.754 C 372.726 294.553,372.659 296.119,372.543 296.235 C 372.333 296.445,372.284 296.238,372.165 294.633 C 372.083 293.528,371.754 293.000,371.147 293.000 C 370.792 293.000,370.656 292.521,370.625 291.167 C 370.602 290.158,370.546 289.183,370.500 289.000 C 370.454 288.817,370.398 288.527,370.375 288.356 C 370.352 288.185,370.033 287.950,369.667 287.833 C 369.092 287.651,369.000 287.329,369.000 285.497 C 369.000 284.148,368.848 283.285,368.583 283.133 C 368.354 283.001,368.278 283.016,368.414 283.166 C 368.666 283.445,368.109 284.333,367.681 284.333 C 367.551 284.333,367.444 284.108,367.444 283.833 C 367.444 283.558,367.569 283.333,367.722 283.333 C 367.875 283.333,368.000 283.183,368.000 283.000 C 368.000 282.792,366.056 282.667,362.833 282.667 L 357.667 282.667 357.667 285.000 M292.667 283.667 C 292.667 284.189,292.444 284.333,291.639 284.333 C 290.425 284.333,290.460 283.637,291.691 283.292 C 292.136 283.168,292.537 283.052,292.583 283.033 C 292.629 283.015,292.667 283.300,292.667 283.667 M375.917 284.194 C 375.599 284.512,374.962 283.998,375.199 283.615 C 375.340 283.387,375.526 283.393,375.765 283.632 C 375.962 283.828,376.030 284.081,375.917 284.194 M128.667 284.071 C 128.667 284.215,128.367 284.333,128.000 284.333 C 127.633 284.333,127.333 284.193,127.333 284.021 C 127.333 283.849,127.633 283.731,128.000 283.758 C 128.367 283.786,128.667 283.927,128.667 284.071 M133.133 287.412 C 133.359 287.563,133.276 287.658,132.917 287.662 C 132.525 287.665,132.342 287.421,132.360 286.917 C 132.377 286.416,132.449 286.333,132.576 286.667 C 132.681 286.942,132.932 287.277,133.133 287.412 M33.595 294.096 C 34.093 294.171,33.637 294.256,32.583 294.283 L 30.667 294.333 30.667 293.333 C 30.667 292.489,30.796 292.333,31.500 292.333 C 32.311 292.333,32.335 292.265,32.404 289.750 C 32.467 287.405,32.484 287.480,32.582 290.562 L 32.690 293.958 33.595 294.096 M369.800 289.078 C 370.026 289.229,369.943 289.325,369.583 289.328 C 369.191 289.332,369.009 289.087,369.026 288.583 C 369.044 288.082,369.116 287.999,369.243 288.333 C 369.348 288.608,369.598 288.944,369.800 289.078 M278.133 290.745 C 278.359 290.896,278.276 290.992,277.917 290.995 C 277.525 290.998,277.342 290.754,277.360 290.250 C 277.377 289.749,277.449 289.666,277.576 290.000 C 277.681 290.275,277.932 290.610,278.133 290.745 M63.583 290.905 C 62.872 291.013,62.667 291.226,62.667 291.855 C 62.667 292.627,62.572 292.664,60.750 292.617 C 59.696 292.589,59.246 292.504,59.750 292.428 C 60.461 292.320,60.667 292.107,60.667 291.478 C 60.667 290.707,60.761 290.669,62.583 290.717 C 63.637 290.744,64.087 290.829,63.583 290.905 M122.667 291.500 C 122.667 292.167,122.833 292.333,123.500 292.333 C 124.167 292.333,124.333 292.500,124.333 293.167 C 124.333 293.833,124.500 294.000,125.167 294.000 C 125.986 294.000,126.000 294.044,126.000 296.667 C 126.000 299.289,125.986 299.333,125.167 299.333 C 124.500 299.333,124.333 299.500,124.333 300.167 C 124.333 300.833,124.167 301.000,123.500 301.000 C 122.833 301.000,122.667 301.167,122.667 301.833 C 122.667 302.537,122.511 302.667,121.667 302.667 C 120.822 302.667,120.667 302.537,120.667 301.833 C 120.667 301.167,120.500 301.000,119.833 301.000 C 119.056 301.000,119.000 300.889,119.000 299.333 C 119.000 297.778,118.944 297.667,118.167 297.667 C 117.463 297.667,117.333 297.511,117.333 296.667 C 117.333 295.822,117.463 295.667,118.167 295.667 C 118.944 295.667,119.000 295.556,119.000 294.000 C 119.000 292.444,119.056 292.333,119.833 292.333 C 120.500 292.333,120.667 292.167,120.667 291.500 C 120.667 290.796,120.822 290.667,121.667 290.667 C 122.511 290.667,122.667 290.796,122.667 291.500 M267.771 292.422 C 268.722 292.489,267.850 292.543,265.833 292.543 C 263.817 292.543,262.954 292.488,263.917 292.421 C 265.550 292.307,265.670 292.239,265.717 291.399 L 265.767 290.500 265.904 291.400 C 266.030 292.225,266.186 292.310,267.771 292.422 M314.333 291.478 C 314.333 292.107,314.539 292.320,315.250 292.428 C 316.103 292.557,316.092 292.570,315.083 292.617 C 314.143 292.660,314.000 292.559,314.000 291.851 C 314.000 291.104,313.851 291.024,312.250 290.912 L 310.500 290.790 312.417 290.728 C 314.242 290.670,314.333 290.705,314.333 291.478 M382.000 296.747 C 382.000 297.228,381.492 296.998,381.073 296.326 C 380.682 295.700,380.700 295.682,381.326 296.073 C 381.697 296.304,382.000 296.608,382.000 296.747 M64.333 300.000 C 64.333 300.844,64.204 301.000,63.500 301.000 C 62.833 301.000,62.667 301.167,62.667 301.833 C 62.667 302.621,62.567 302.667,60.833 302.667 C 59.019 302.667,59.000 302.657,59.000 301.667 L 59.000 300.667 61.500 300.667 C 63.944 300.667,64.000 300.648,64.000 299.833 C 64.000 299.375,64.075 299.000,64.167 299.000 C 64.258 299.000,64.333 299.450,64.333 300.000 M312.667 301.478 C 312.667 302.107,312.872 302.320,313.583 302.428 C 314.087 302.504,313.637 302.589,312.583 302.617 L 310.667 302.667 310.667 301.667 C 310.667 300.778,310.778 300.667,311.667 300.667 C 312.504 300.667,312.667 300.799,312.667 301.478 M380.044 300.966 C 379.793 301.125,379.458 301.460,379.299 301.711 C 379.086 302.047,379.009 301.969,379.005 301.417 C 379.001 300.858,379.191 300.668,379.750 300.672 C 380.303 300.676,380.380 300.753,380.044 300.966 M102.667 301.298 C 102.667 301.666,103.532 302.024,103.792 301.764 C 103.896 301.659,103.902 301.445,103.805 301.287 C 103.571 300.908,102.667 300.917,102.667 301.298 M231.000 303.127 C 231.000 303.402,231.150 303.720,231.333 303.833 C 231.517 303.947,231.667 303.814,231.667 303.539 C 231.667 303.264,231.517 302.947,231.333 302.833 C 231.150 302.720,231.000 302.852,231.000 303.127 M14.733 306.400 C 14.172 306.962,14.236 307.289,14.889 307.193 C 15.195 307.148,15.481 306.861,15.526 306.556 C 15.622 305.903,15.295 305.838,14.733 306.400 M301.000 306.480 C 301.000 307.018,301.472 307.417,301.764 307.125 C 302.024 306.865,301.666 306.000,301.298 306.000 C 301.134 306.000,301.000 306.216,301.000 306.480 M131.444 308.565 C 131.444 309.071,132.061 308.983,132.238 308.451 C 132.301 308.264,132.148 308.111,131.898 308.111 C 131.649 308.111,131.444 308.315,131.444 308.565 " stroke="none" fill="#fcfcfc" fill-rule="evenodd"></path><path id="path1" d="M249.333 56.667 L 249.333 97.333 250.167 97.333 L 251.000 97.333 251.000 103.167 L 251.000 109.000 251.833 109.000 L 252.667 109.000 252.667 114.833 L 252.667 120.667 253.500 120.667 L 254.333 120.667 254.333 127.333 L 254.333 134.000 255.167 134.000 L 256.000 134.000 256.000 139.833 L 256.000 145.667 256.833 145.667 L 257.667 145.667 257.667 151.500 L 257.667 157.333 258.500 157.333 L 259.333 157.333 259.333 160.667 L 259.333 164.000 275.000 164.000 L 290.667 164.000 290.667 160.667 L 290.667 157.333 291.500 157.333 L 292.333 157.333 292.333 152.333 L 292.333 147.333 293.167 147.333 L 294.000 147.333 294.000 142.333 L 294.000 137.333 294.833 137.333 L 295.667 137.333 295.667 132.333 L 295.667 127.333 296.500 127.333 L 297.333 127.333 297.333 122.333 L 297.333 117.333 298.167 117.333 L 299.000 117.333 299.000 112.333 L 299.000 107.333 299.833 107.333 L 300.667 107.333 300.704 103.083 C 300.724 100.746,300.710 98.476,300.674 98.039 C 300.616 97.353,300.725 97.267,301.470 97.409 L 302.333 97.574 302.333 56.787 L 302.333 16.000 275.833 16.000 L 249.333 16.000 249.333 56.667 M251.000 204.167 L 251.000 229.000 275.833 229.000 L 300.667 229.000 300.667 204.167 L 300.667 179.333 275.833 179.333 L 251.000 179.333 251.000 204.167 M184.556 282.889 C 183.988 283.456,184.360 284.333,185.167 284.333 C 185.833 284.333,186.000 284.167,186.000 283.500 C 186.000 282.693,185.123 282.322,184.556 282.889 M204.000 283.500 C 204.000 284.167,204.167 284.333,204.833 284.333 C 205.500 284.333,205.667 284.167,205.667 283.500 C 205.667 282.833,205.500 282.667,204.833 282.667 C 204.167 282.667,204.000 282.833,204.000 283.500 M270.667 283.500 C 270.667 284.167,270.833 284.333,271.500 284.333 C 272.167 284.333,272.333 284.167,272.333 283.500 C 272.333 282.833,272.167 282.667,271.500 282.667 C 270.833 282.667,270.667 282.833,270.667 283.500 M385.667 284.972 C 385.667 285.507,385.479 286.020,385.250 286.113 C 385.001 286.213,385.068 286.291,385.417 286.307 C 385.866 286.327,386.000 286.066,386.000 285.167 C 386.000 284.525,385.925 284.000,385.833 284.000 C 385.742 284.000,385.667 284.438,385.667 284.972 " stroke="none" fill="#fccc04" fill-rule="evenodd"></path><path id="path2" d="" stroke="none" fill="#fce4100" fill-rule="evenodd"></path><path id="path3" d="" stroke="none" fill="#fce4100" fill-rule="evenodd"></path><path id="path4" d="" stroke="none" fill="#fce4100" fill-rule="evenodd"></path></g></svg>